Coordinates
version=1
nRows=16
nColumns=22
inDegrees=yes

Units are S.I. units (second, meters, Newtons, ...)
If the header above contains a line with 'inDegrees', this indicates whether rotational values are in degrees (yes) or radians (no).

endheader
time	pelvis_tilt	pelvis_list	pelvis_rotation	pelvis_tx	pelvis_ty	pelvis_tz	hip_flexion_r	hip_adduction_r	hip_rotation_r	knee_angle_r	ankle_angle_r	subtalar_angle_r	hip_flexion_l	hip_adduction_l	hip_rotation_l	knee_angle_l	ankle_angle_l	subtalar_angle_l	lumbar_extension	lumbar_bending	lumbar_rotation
      0.01000000	     -8.23826458	      3.72040448	    -33.02411718	     -1.34940227	      0.88630815	     -0.25474774	      9.04468293	     -2.29959275	     -4.17403675	     -7.54691774	     12.19355528	      1.44933405	     11.92427546	     -4.13989773	     -2.37602575	    -15.08607948	     13.51072192	      3.06414623	      3.50115698	     -0.69544666	      9.63811416
      0.02000000	     -8.24834243	      3.74448343	    -33.11978560	     -1.34955639	      0.88629284	     -0.25490888	      9.11511645	     -2.31512005	     -4.10866787	     -7.57667806	     12.15863253	      1.45954940	     11.86918600	     -4.13180949	     -2.43620402	    -14.95299675	     13.50224824	      3.09466941	      3.51578440	     -0.72136232	      9.74444480
      0.03000000	     -8.26740765	      3.76182197	    -33.23207378	     -1.34972281	      0.88627219	     -0.25507849	      9.19213763	     -2.31721027	     -4.01262291	     -7.60501923	     12.13345478	      1.47713214	     11.80190870	     -4.13692526	     -2.50232050	    -14.79877519	     13.50915856	      3.11216567	      3.53674472	     -0.73345171	      9.85230910
      0.04000000	     -8.28669155	      3.78055311	    -33.34573562	     -1.34989443	      0.88625709	     -0.25528974	      9.27767325	     -2.32235761	     -3.91418790	     -7.64285456	     12.10252171	      1.49671025	     11.72859803	     -4.13800923	     -2.55874393	    -14.63029615	     13.51939572	      3.12508258	      3.55641394	     -0.74549786	      9.96762828
      0.05000000	     -8.28999670	      3.81333646	    -33.48493697	     -1.35004529	      0.88625215	     -0.25547563	      9.36224743	     -2.34765997	     -3.77560390	     -7.68792780	     12.08712751	      1.52801330	     11.64015877	     -4.12178369	     -2.65533696	    -14.46379200	     13.51470552	      3.14230926	      3.57601135	     -0.77436927	     10.08528981
      0.06000000	     -8.30602437	      3.82602927	    -33.59253122	     -1.35015956	      0.88624621	     -0.25572243	      9.44688185	     -2.35314642	     -3.69390686	     -7.74055684	     12.05889990	      1.54579710	     11.56125028	     -4.12012183	     -2.66749359	    -14.30758664	     13.53866919	      3.15185501	      3.59303047	     -0.77489086	     10.18993792
      0.07000000	     -8.31044435	      3.84581416	    -33.70998019	     -1.35024089	      0.88624722	     -0.25595362	      9.52846637	     -2.37111621	     -3.58766526	     -7.80158981	     12.04161950	      1.56405762	     11.47962462	     -4.10721538	     -2.70019597	    -14.16727158	     13.55806087	      3.16070913	      3.60755576	     -0.78310553	     10.29163089
      0.08000000	     -8.30510405	      3.86251395	    -33.82004214	     -1.35028615	      0.88625794	     -0.25619043	      9.59996164	     -2.39380716	     -3.48369212	     -7.86928848	     12.03408424	      1.57920635	     11.40440167	     -4.09003683	     -2.72539618	    -14.05977780	     13.58218824	      3.16873486	      3.61200250	     -0.79019733	     10.37695090
      0.09000000	     -8.29243625	      3.87368489	    -33.91932579	     -1.35029372	      0.88627512	     -0.25644269	      9.66197403	     -2.41854199	     -3.38872919	     -7.94389024	     12.03185162	      1.58900052	     11.33763249	     -4.07004084	     -2.73454252	    -13.98448531	     13.61461620	      3.17705023	      3.60582212	     -0.79095491	     10.44371311
      0.10000000	     -8.26423246	      3.88661629	    -34.01987823	     -1.35028488	      0.88630515	     -0.25668684	      9.71544394	     -2.45340435	     -3.28170411	     -8.02834041	     12.04441923	      1.59620101	     11.27329062	     -4.03990075	     -2.76027785	    -13.93763336	     13.63961689	      3.19036259	      3.58392424	     -0.79904759	     10.49771697
      0.11000000	     -8.24494273	      3.87875212	    -34.07903183	     -1.35022924	      0.88633510	     -0.25698553	      9.75310775	     -2.47220985	     -3.22424056	     -8.10305753	     12.02662890	      1.59629880	     11.23539743	     -4.02334285	     -2.71446851	    -13.93523656	     13.68054915	      3.19661554	      3.55493894	     -0.77925938	     10.50480852
      0.12000000	     -8.20606464	      3.88104480	    -34.17309017	     -1.35014739	      0.88636792	     -0.25722295	      9.79791636	     -2.50776818	     -3.14280018	     -8.21242198	     12.07187753	      1.59357755	     11.16626595	     -3.99087421	     -2.72606684	    -13.90850145	     13.73515543	      3.21199796	      3.52002062	     -0.77388443	     10.57468546
      0.13000000	     -8.17485717	      3.87042349	    -34.22149126	     -1.35004763	      0.88640403	     -0.25754037	      9.82420663	     -2.53503639	     -3.08309374	     -8.29421710	     12.05976095	      1.59269606	     11.13678651	     -3.96414133	     -2.68940608	    -13.93757861	     13.76033489	      3.21884644	      3.47422597	     -0.74768313	     10.56909150
      0.14000000	     -8.12339470	      3.86222082	    -34.29939393	     -1.34994136	      0.88644659	     -0.25779301	      9.85635170	     -2.57303661	     -3.03050920	     -8.41717357	     12.11126496	      1.59121936	     11.07423185	     -3.92908224	     -2.69066900	    -13.94609679	     13.81779394	      3.23105998	      3.41449191	     -0.73399443	     10.61060107
      0.15000000	     -8.07739882	      3.84808412	    -34.35124248	     -1.34981953	      0.88649016	     -0.25809157	      9.87922723	     -2.60767673	     -2.98676711	     -8.52477775	     12.13231893	      1.59358174	     11.03452902	     -3.89629660	     -2.66679912	    -13.98140806	     13.85250285	      3.23750607	      3.35022112	     -0.70685671	     10.61774700
      0.16000000	     -8.04118453	      3.82968938	    -34.38598736	     -1.34969438	      0.88652823	     -0.25841282	      9.89940897	     -2.63502005	     -2.94408715	     -8.61742652	     12.12869656	      1.59581978	     11.01542963	     -3.86977275	     -2.62222742	    -14.03273102	     13.87453645	      3.23910823	      3.28896808	     -0.66647052	     10.60446045
